<?xml version="1.0" encoding="UTF-8"?>
<svg id="Layer_1" data-name="Layer 1" xmlns="http://www.w3.org/2000/svg" viewBox="0 0 40 40">
  <defs>
    <style>
      .cls-1 {
        fill: #4ba2ef;
      }
    </style>
  </defs>
  <path class="cls-1" d="m31.76,11.53H8.23c-1.68,0-3.04,1.36-3.04,3.04v10.22c0,4.48,3.63,8.11,8.11,8.11h13.39c4.48,0,8.11-3.63,8.11-8.11v-10.22c0-1.68-1.36-3.04-3.04-3.04Zm-19.42,13.23c-1.15,0-2.07-1.41-2.07-3.16s.93-3.16,2.07-3.16,2.07,1.42,2.07,3.16-.93,3.16-2.07,3.16Zm7.94,3.43c-1.22,0-2.22-.63-2.22-1.4h4.44c0,.77-.99,1.4-2.22,1.4Zm7.37-3.43c-1.15,0-2.07-1.41-2.07-3.16s.93-3.16,2.07-3.16,2.07,1.42,2.07,3.16-.93,3.16-2.07,3.16Z"/>
  <path class="cls-1" d="m32.8,10.67H7.18c.21-2.01,1.92-3.58,3.99-3.58h17.64c1.11,0,2.11.45,2.83,1.17.63.63,1.05,1.47,1.15,2.41Z"/>
  <path class="cls-1" d="m38.16,20.85c0,1.47-1.04,2.69-2.42,2.98v-5.95c.59.12,1.12.42,1.53.83.55.55.89,1.31.89,2.15Z"/>
  <path class="cls-1" d="m4.24,18.25v5.95c-1.38-.29-2.41-1.51-2.41-2.97h0c0-1.46,1.03-2.68,2.41-2.97Z"/>
</svg>